<mxfile host="app.diagrams.net" agent="Mozilla/5.0 (Macintosh; Intel Mac OS X 10_15_7) AppleWebKit/537.36 (KHTML, like Gecko) Chrome/129.0.0.0 Safari/537.36" version="24.7.16">
  <diagram name="Page-1" id="4TGqmnACW8DPtco447QP">
    <mxGraphModel dx="909" dy="414" grid="1" gridSize="10" guides="1" tooltips="1" connect="1" arrows="1" fold="1" page="1" pageScale="1" pageWidth="827" pageHeight="1169" math="0" shadow="0">
      <root>
        <mxCell id="0" />
        <mxCell id="1" parent="0" />
        <mxCell id="xI6Dujy12qN9GQraL9bW-19" value="" style="rounded=0;whiteSpace=wrap;html=1;" vertex="1" parent="1">
          <mxGeometry x="140" y="20" width="660" height="330" as="geometry" />
        </mxCell>
        <mxCell id="xI6Dujy12qN9GQraL9bW-1" value="Flask API" style="rounded=0;whiteSpace=wrap;html=1;" vertex="1" parent="1">
          <mxGeometry x="200" y="80" width="70" height="160" as="geometry" />
        </mxCell>
        <mxCell id="xI6Dujy12qN9GQraL9bW-3" value="" style="sketch=0;outlineConnect=0;fontColor=#232F3E;gradientColor=none;fillColor=#01A88D;strokeColor=none;dashed=0;verticalLabelPosition=bottom;verticalAlign=top;align=center;html=1;fontSize=12;fontStyle=0;aspect=fixed;pointerEvents=1;shape=mxgraph.aws4.sagemaker_model;" vertex="1" parent="1">
          <mxGeometry x="660" y="110" width="120" height="120" as="geometry" />
        </mxCell>
        <mxCell id="xI6Dujy12qN9GQraL9bW-4" value="Fine-tuned Model" style="text;html=1;align=center;verticalAlign=middle;whiteSpace=wrap;rounded=0;" vertex="1" parent="1">
          <mxGeometry x="680" y="240" width="100" height="30" as="geometry" />
        </mxCell>
        <mxCell id="xI6Dujy12qN9GQraL9bW-7" value="Model Inference Script" style="rounded=0;whiteSpace=wrap;html=1;" vertex="1" parent="1">
          <mxGeometry x="414" y="90" width="116.5" height="160" as="geometry" />
        </mxCell>
        <mxCell id="xI6Dujy12qN9GQraL9bW-9" value="" style="endArrow=classic;html=1;rounded=0;entryX=0.008;entryY=0.306;entryDx=0;entryDy=0;entryPerimeter=0;" edge="1" parent="1" target="xI6Dujy12qN9GQraL9bW-1">
          <mxGeometry width="50" height="50" relative="1" as="geometry">
            <mxPoint x="60" y="130" as="sourcePoint" />
            <mxPoint x="140" y="130" as="targetPoint" />
          </mxGeometry>
        </mxCell>
        <mxCell id="xI6Dujy12qN9GQraL9bW-10" value="" style="endArrow=classic;html=1;rounded=0;" edge="1" parent="1">
          <mxGeometry width="50" height="50" relative="1" as="geometry">
            <mxPoint x="274" y="130" as="sourcePoint" />
            <mxPoint x="414" y="130" as="targetPoint" />
          </mxGeometry>
        </mxCell>
        <mxCell id="xI6Dujy12qN9GQraL9bW-11" value="" style="endArrow=classic;html=1;rounded=0;" edge="1" parent="1">
          <mxGeometry width="50" height="50" relative="1" as="geometry">
            <mxPoint x="530.5" y="130" as="sourcePoint" />
            <mxPoint x="670.5" y="130" as="targetPoint" />
          </mxGeometry>
        </mxCell>
        <mxCell id="xI6Dujy12qN9GQraL9bW-12" value="" style="endArrow=classic;html=1;rounded=0;entryX=1.013;entryY=0.68;entryDx=0;entryDy=0;entryPerimeter=0;" edge="1" parent="1">
          <mxGeometry width="50" height="50" relative="1" as="geometry">
            <mxPoint x="670" y="201.2" as="sourcePoint" />
            <mxPoint x="533.0145" y="199.99999999999994" as="targetPoint" />
            <Array as="points">
              <mxPoint x="680" y="201.2" />
            </Array>
          </mxGeometry>
        </mxCell>
        <mxCell id="xI6Dujy12qN9GQraL9bW-13" value="" style="endArrow=classic;html=1;rounded=0;entryX=1.043;entryY=0.623;entryDx=0;entryDy=0;entryPerimeter=0;" edge="1" parent="1">
          <mxGeometry width="50" height="50" relative="1" as="geometry">
            <mxPoint x="414" y="191" as="sourcePoint" />
            <mxPoint x="272.01" y="189.68000000000006" as="targetPoint" />
          </mxGeometry>
        </mxCell>
        <mxCell id="xI6Dujy12qN9GQraL9bW-14" value="" style="endArrow=classic;html=1;rounded=0;entryX=1.043;entryY=0.623;entryDx=0;entryDy=0;entryPerimeter=0;exitX=0.091;exitY=0.515;exitDx=0;exitDy=0;exitPerimeter=0;" edge="1" parent="1" source="xI6Dujy12qN9GQraL9bW-19">
          <mxGeometry width="50" height="50" relative="1" as="geometry">
            <mxPoint x="140" y="190" as="sourcePoint" />
            <mxPoint x="60" y="190" as="targetPoint" />
          </mxGeometry>
        </mxCell>
        <mxCell id="xI6Dujy12qN9GQraL9bW-15" value="User Request (HTTP)" style="text;html=1;align=center;verticalAlign=middle;whiteSpace=wrap;rounded=0;" vertex="1" parent="1">
          <mxGeometry x="10" y="90" width="130" height="30" as="geometry" />
        </mxCell>
        <mxCell id="xI6Dujy12qN9GQraL9bW-16" value="Sentiment Analysis" style="text;html=1;align=center;verticalAlign=middle;whiteSpace=wrap;rounded=0;" vertex="1" parent="1">
          <mxGeometry x="10" y="200" width="130" height="30" as="geometry" />
        </mxCell>
        <mxCell id="xI6Dujy12qN9GQraL9bW-17" value="Model output Logits" style="text;html=1;align=center;verticalAlign=middle;whiteSpace=wrap;rounded=0;" vertex="1" parent="1">
          <mxGeometry x="540" y="210" width="120" height="30" as="geometry" />
        </mxCell>
        <mxCell id="xI6Dujy12qN9GQraL9bW-20" value="Docker Container: Model as a Service" style="text;html=1;align=center;verticalAlign=middle;whiteSpace=wrap;rounded=0;" vertex="1" parent="1">
          <mxGeometry x="370" y="390" width="230" height="30" as="geometry" />
        </mxCell>
        <mxCell id="xI6Dujy12qN9GQraL9bW-21" value="Turns Logits into Probability / Final Prediction" style="text;html=1;align=center;verticalAlign=middle;whiteSpace=wrap;rounded=0;" vertex="1" parent="1">
          <mxGeometry x="400" y="270" width="176" height="30" as="geometry" />
        </mxCell>
        <mxCell id="xI6Dujy12qN9GQraL9bW-22" value="Gradio UI" style="rounded=0;whiteSpace=wrap;html=1;" vertex="1" parent="1">
          <mxGeometry x="130" y="555" width="140" height="95" as="geometry" />
        </mxCell>
        <mxCell id="xI6Dujy12qN9GQraL9bW-23" value="Model Docker Container" style="rounded=0;whiteSpace=wrap;html=1;" vertex="1" parent="1">
          <mxGeometry x="512" y="550" width="168" height="100" as="geometry" />
        </mxCell>
        <mxCell id="xI6Dujy12qN9GQraL9bW-24" value="" style="endArrow=classic;html=1;rounded=0;" edge="1" parent="1">
          <mxGeometry width="50" height="50" relative="1" as="geometry">
            <mxPoint x="270" y="580" as="sourcePoint" />
            <mxPoint x="510" y="580" as="targetPoint" />
          </mxGeometry>
        </mxCell>
        <mxCell id="xI6Dujy12qN9GQraL9bW-25" value="" style="endArrow=classic;html=1;rounded=0;" edge="1" parent="1">
          <mxGeometry width="50" height="50" relative="1" as="geometry">
            <mxPoint x="510" y="630" as="sourcePoint" />
            <mxPoint x="270" y="630" as="targetPoint" />
            <Array as="points">
              <mxPoint x="320" y="630" />
            </Array>
          </mxGeometry>
        </mxCell>
        <mxCell id="xI6Dujy12qN9GQraL9bW-26" value="API Request (POST)" style="text;html=1;align=center;verticalAlign=middle;whiteSpace=wrap;rounded=0;" vertex="1" parent="1">
          <mxGeometry x="310" y="540" width="140" height="30" as="geometry" />
        </mxCell>
        <mxCell id="xI6Dujy12qN9GQraL9bW-27" value="JSON Response:&lt;br&gt;{ sentiment: positive / negative}" style="text;html=1;align=center;verticalAlign=middle;whiteSpace=wrap;rounded=0;" vertex="1" parent="1">
          <mxGeometry x="290" y="650" width="200" height="30" as="geometry" />
        </mxCell>
        <mxCell id="xI6Dujy12qN9GQraL9bW-28" value="http://localhost:5000/sentiment" style="text;html=1;align=center;verticalAlign=middle;whiteSpace=wrap;rounded=0;" vertex="1" parent="1">
          <mxGeometry x="483" y="510" width="234" height="30" as="geometry" />
        </mxCell>
      </root>
    </mxGraphModel>
  </diagram>
</mxfile>
